<svg width="300" height="96" viewBox="0 0 300 96" fill="none" xmlns="http://www.w3.org/2000/svg">
<path d="M9.47772 81.184C14.7121 81.184 18.9554 76.9406 18.9554 71.7062C18.9554 66.4718 14.7121 62.2285 9.47772 62.2285C4.24332 62.2285 0 66.4718 0 71.7062C0 76.9406 4.24332 81.184 9.47772 81.184Z" fill="#006363"/>
<path d="M25.7016 89.6425C29.8332 89.6425 33.1825 86.2932 33.1825 82.1616C33.1825 78.03 29.8332 74.6807 25.7016 74.6807C21.57 74.6807 18.2207 78.03 18.2207 82.1616C18.2207 86.2932 21.57 89.6425 25.7016 89.6425Z" fill="#006363"/>
<path d="M42.2188 86.0119C45.799 86.0119 48.7013 83.1096 48.7013 79.5294C48.7013 75.9492 45.799 73.0469 42.2188 73.0469C38.6386 73.0469 35.7363 75.9492 35.7363 79.5294C35.7363 83.1096 38.6386 86.0119 42.2188 86.0119Z" fill="#006363"/>
<path d="M51.8239 75.7348C54.8527 75.7348 57.308 73.2795 57.308 70.2507C57.308 67.2219 54.8527 64.7666 51.8239 64.7666C48.7952 64.7666 46.3398 67.2219 46.3398 70.2507C46.3398 73.2795 48.7952 75.7348 51.8239 75.7348Z" fill="#006363"/>
<path d="M55.0111 62.906C57.4885 62.906 59.4968 60.8976 59.4968 58.4203C59.4968 55.9429 57.4885 53.9346 55.0111 53.9346C52.5337 53.9346 50.5254 55.9429 50.5254 58.4203C50.5254 60.8976 52.5337 62.906 55.0111 62.906Z" fill="#006363"/>
<path d="M52.8655 51.7593C54.7954 51.7593 56.3599 50.1948 56.3599 48.2649C56.3599 46.335 54.7954 44.7705 52.8655 44.7705C50.9356 44.7705 49.3711 46.335 49.3711 48.2649C49.3711 50.1948 50.9356 51.7593 52.8655 51.7593Z" fill="#006363"/>
<path d="M11.834 59.5204C15.7936 58.3408 18.0472 54.1746 16.8675 50.215C15.6879 46.2554 11.5217 44.0018 7.56208 45.1814C3.60247 46.3611 1.34888 50.5273 2.52854 54.4869C3.70819 58.4465 7.87439 60.7001 11.834 59.5204Z" fill="#006363"/>
<path d="M22.8012 46.1857C26.2323 45.1635 28.1851 41.5534 27.1629 38.1222C26.1407 34.691 22.5305 32.7382 19.0994 33.7604C15.6682 34.7827 13.7154 38.3928 14.7376 41.824C15.7598 45.2551 19.37 47.208 22.8012 46.1857Z" fill="#006363"/>
<path d="M46.8956 45.1316C49.2699 44.4243 50.6212 41.9261 49.9138 39.5519C49.2065 37.1776 46.7084 35.8263 44.3341 36.5337C41.9599 37.241 40.6086 39.7392 41.3159 42.1134C42.0233 44.4877 44.5214 45.839 46.8956 45.1316Z" fill="#006363"/>
<path d="M74.6156 80.4279H70.6933V88.6077H63.7188V67.5342H70.6933V75.0864H74.6156V67.5342H81.5902V88.6077H74.6156V80.4279Z" fill="#006363"/>
<path d="M94.663 88.5497C93.2438 93.2636 89.6781 95.5243 84.0371 95.5885L83.3454 91.0885C86.3976 90.8461 87.7811 90.2755 88.6012 88.6139H86.3049L81.8691 72.4326H88.9935L90.5054 84.5989L92.6163 72.4326H99.5338L94.6701 88.5569L94.663 88.5497Z" fill="#006363"/>
<path d="M115.865 66.115V88.6076H109.888L109.674 87.0387C108.89 88.0656 107.564 89.2709 105.146 89.2709C100.86 89.2709 98.9844 85.7978 98.9844 80.3922C98.9844 75.3502 101.794 71.7845 105.838 71.7845C107.107 71.7845 108.284 72.1482 109.161 72.8685V65.4375L115.865 66.1007V66.115ZM109.161 83.3232V77.1902C108.705 76.7337 108.348 76.4984 107.799 76.4984C106.743 76.4984 105.809 77.4041 105.809 80.4849C105.809 84.2574 106.686 84.4999 107.471 84.4999C108.077 84.4999 108.676 84.1647 109.161 83.3232Z" fill="#006363"/>
<path d="M129.751 72.1843L128.724 78.6454C128.21 78.4956 127.725 78.3744 127.212 78.3744C125.308 78.3744 124.766 79.8221 124.373 81.6691V88.6152H117.67V72.4339H123.525L124.067 75.4505C124.673 73.3681 126.335 71.8848 128.11 71.8848C128.745 71.8848 129.137 72.006 129.743 72.1843H129.751Z" fill="#006363"/>
<path d="M146.501 80.578C146.501 85.8909 143.214 89.2712 137.929 89.2712C132.645 89.2712 129.357 86.219 129.357 80.4853C129.357 75.1438 132.645 71.792 137.929 71.792C143.214 71.792 146.501 74.8086 146.501 80.578ZM136.175 80.4853C136.175 83.4733 136.689 84.5003 137.929 84.5003C139.17 84.5003 139.684 83.3521 139.684 80.578C139.684 77.5899 139.17 76.5344 137.929 76.5344C136.689 76.5344 136.175 77.6826 136.175 80.4924V80.4853Z" fill="#006363"/>
<path d="M164.287 73.6027C163.381 74.0591 161.905 74.3872 159.73 74.3872C161.905 75.2643 162.932 76.3483 162.932 78.6732C162.932 81.6898 160.093 83.9576 155.536 83.9576C154.902 83.9576 154.417 83.9861 153.875 83.9005C153.696 83.9933 153.632 84.1145 153.632 84.2928C153.632 84.4711 153.632 84.9275 155.08 84.9275H157.348C161.577 84.9275 164.144 86.9172 164.144 89.8197C164.144 93.2927 160.914 95.5534 154.873 95.5534C147.956 95.5534 146.387 93.1714 146.387 90.055H152.363C152.363 91.0819 152.784 91.4171 155.109 91.4171C157.284 91.4171 157.405 90.7254 157.405 90.2689C157.405 89.9052 157.227 89.3347 156.043 89.3347H153.868C149.667 89.3347 148.134 87.887 148.134 86.0756C148.134 84.7492 149.04 83.4513 150.216 82.7238C147.949 81.5186 147.136 80.0353 147.136 77.9529C147.136 73.9664 150.216 71.7913 155.044 71.7913C158.275 71.9125 160.871 70.5504 162.896 69.0742L164.287 73.6027ZM153.782 77.8317C153.782 79.2223 154.509 79.7001 155.258 79.7001C156.257 79.7001 156.77 79.1296 156.77 77.7104C156.77 76.5052 156.285 76.0773 155.294 76.0773C154.481 76.0773 153.782 76.5908 153.782 77.8317Z" fill="#006363"/>
<path d="M180.142 82.3887H170.479C170.814 84.3498 171.841 84.5923 173.438 84.5923C174.494 84.5923 175.585 84.1359 176.968 83.1731L179.685 86.7959C178.052 88.0938 175.727 89.2705 172.768 89.2705C166.521 89.2705 163.711 85.498 163.711 80.5131C163.711 75.8634 166.428 71.7842 172.076 71.7842C176.94 71.7842 180.292 74.8365 180.292 80.3562C180.292 80.8697 180.235 81.7468 180.142 82.3815V82.3887ZM173.681 78.4949C173.652 77.197 173.531 75.899 172.205 75.899C171.121 75.899 170.607 76.5052 170.422 78.7088H173.681V78.4949Z" fill="#006363"/>
<path d="M196.807 76.5915V88.608H190.104V77.8609C190.104 76.8339 189.861 76.62 189.562 76.62C189.169 76.62 188.599 76.9837 187.993 77.9464V88.608H181.289V72.4267H187.144L187.6 73.9671C189.198 72.3982 190.588 71.792 192.521 71.792C195.145 71.792 196.807 73.5107 196.807 76.5915Z" fill="#006363"/>
<path d="M77.0005 18.4658C79.9314 14.1288 78.7915 8.23711 74.4545 5.30629C70.1175 2.37546 64.2258 3.51536 61.295 7.85232C58.3642 12.1893 59.5041 18.081 63.841 21.0118C68.178 23.9426 74.0697 22.8027 77.0005 18.4658Z" fill="#2673BF"/>
<path d="M85.5033 33.763C87.8166 30.3398 86.9169 25.6894 83.4936 23.3761C80.0704 21.0627 75.42 21.9625 73.1067 25.3857C70.7933 28.8089 71.693 33.4593 75.1163 35.7727C78.5395 38.086 83.1899 37.1863 85.5033 33.763Z" fill="#2673BF"/>
<path d="M81.7449 49.6666C83.7495 46.7002 82.9698 42.6704 80.0034 40.6658C77.0371 38.6612 73.0073 39.4409 71.0027 42.4072C68.9981 45.3736 69.7778 49.4034 72.7441 51.408C75.7105 53.4126 79.7403 52.6329 81.7449 49.6666Z" fill="#2673BF"/>
<path d="M71.4708 58.5398C73.1667 56.0303 72.5071 52.6212 69.9976 50.9253C67.4881 49.2295 64.079 49.889 62.3831 52.3985C60.6873 54.908 61.3469 58.3172 63.8563 60.013C66.3658 61.7089 69.775 61.0493 71.4708 58.5398Z" fill="#2673BF"/>
<path d="M44.9358 59.6187C46.8657 59.6187 48.4302 58.0542 48.4302 56.1243C48.4302 54.1944 46.8657 52.6299 44.9358 52.6299C43.0059 52.6299 41.4414 54.1944 41.4414 56.1243C41.4414 58.0542 43.0059 59.6187 44.9358 59.6187Z" fill="#2673BF"/>
<path d="M56.9754 15.126C58.1295 11.1588 55.849 7.00728 51.8819 5.85322C47.9148 4.69915 43.7632 6.9796 42.6091 10.9467C41.4551 14.9139 43.7355 19.0654 47.7027 20.2195C51.6698 21.3736 55.8214 19.0931 56.9754 15.126Z" fill="#2673BF"/>
<path d="M43.4433 25.8775C44.4433 22.4398 42.4672 18.8423 39.0295 17.8422C35.5919 16.8422 31.9944 18.8183 30.9943 22.256C29.9943 25.6937 31.9704 29.2912 35.4081 30.2912C38.8458 31.2912 42.4432 29.3151 43.4433 25.8775Z" fill="#2673BF"/>
<path d="M35.5398 42.2817C38.4425 41.4169 40.0946 38.3628 39.2298 35.4601C38.365 32.5574 35.3109 30.9053 32.4082 31.7701C29.5054 32.6349 27.8534 35.689 28.7182 38.5917C29.583 41.4944 32.6371 43.1465 35.5398 42.2817Z" fill="#2673BF"/>
<path d="M41.9454 49.9849C42.6374 47.6062 41.27 45.1168 38.8912 44.4248C36.5124 43.7328 34.0231 45.1002 33.3311 47.479C32.6391 49.8578 34.0065 52.3471 36.3853 53.0391C38.764 53.7311 41.2534 52.3637 41.9454 49.9849Z" fill="#2673BF"/>
<path d="M217.625 72.3698H210.921V75.6289H216.812V80.2501H210.921V83.8443H218.074V88.6438H203.939V67.5703H218.309L217.618 72.3698H217.625Z" fill="#2673BF"/>
<path d="M234.776 76.6266V88.6431H228.072V77.896C228.072 76.8691 227.83 76.6552 227.53 76.6552C227.138 76.6552 226.568 77.0189 225.961 77.9816V88.6431H219.258V72.4618H225.113L225.569 74.0022C227.167 72.4333 228.557 71.8271 230.49 71.8271C233.114 71.8271 234.776 73.5458 234.776 76.6266Z" fill="#2673BF"/>
<path d="M252.197 82.4248H242.533C242.869 84.386 243.895 84.6284 245.493 84.6284C246.548 84.6284 247.64 84.172 249.023 83.2093L251.74 86.8321C250.107 88.13 247.782 89.3067 244.823 89.3067C238.575 89.3067 235.766 85.5341 235.766 80.5492C235.766 75.8995 238.483 71.8203 244.131 71.8203C248.994 71.8203 252.346 74.8726 252.346 80.3923C252.346 80.9058 252.289 81.783 252.197 82.4177V82.4248ZM245.735 78.531C245.707 77.2331 245.586 75.9352 244.259 75.9352C243.175 75.9352 242.662 76.5413 242.476 78.745H245.735V78.531Z" fill="#2673BF"/>
<path d="M265.426 72.2194L264.399 78.6806C263.886 78.5308 263.401 78.4096 262.888 78.4096C260.984 78.4096 260.442 79.8572 260.049 81.7043V88.6503H253.346V72.469H259.201L259.743 75.4857C260.349 73.4033 262.01 71.9199 263.786 71.9199C264.421 71.9199 264.813 72.0412 265.419 72.2194H265.426Z" fill="#2673BF"/>
<path d="M282.955 73.6388C282.049 74.0952 280.573 74.4233 278.398 74.4233C280.573 75.3005 281.6 76.3844 281.6 78.7093C281.6 81.7259 278.761 83.9937 274.204 83.9937C273.57 83.9937 273.085 84.0223 272.543 83.9367C272.364 84.0294 272.3 84.1506 272.3 84.3289C272.3 84.5072 272.3 84.9636 273.748 84.9636H276.016C280.245 84.9636 282.812 86.9533 282.812 89.8558C282.812 93.3288 279.581 95.5895 273.541 95.5895C266.624 95.5895 265.055 93.2076 265.055 90.0911H271.031C271.031 91.1181 271.452 91.4532 273.776 91.4532C275.952 91.4532 276.073 90.7615 276.073 90.3051C276.073 89.9414 275.895 89.3709 274.711 89.3709H272.536C268.335 89.3709 266.802 87.9232 266.802 86.1118C266.802 84.7853 267.708 83.4874 268.884 82.76C266.616 81.5548 265.803 80.0714 265.803 77.989C265.803 74.0025 268.884 71.8274 273.712 71.8274C276.943 71.9487 279.539 70.5866 281.564 69.1104L282.955 73.6388ZM272.45 77.8678C272.45 79.2584 273.177 79.7362 273.926 79.7362C274.925 79.7362 275.438 79.1657 275.438 77.7466C275.438 76.5413 274.953 76.1135 273.962 76.1135C273.149 76.1135 272.45 76.6269 272.45 77.8678Z" fill="#2673BF"/>
<path d="M295.13 88.5859C293.711 93.2998 290.145 95.5604 284.504 95.6246L283.812 91.1247C286.864 90.8822 288.248 90.3117 289.068 88.6501H286.772L282.336 72.4688H289.46L290.972 84.635L293.083 72.4688H300.001L295.137 88.593L295.13 88.5859Z" fill="#2673BF"/>
</svg>
